<svg xmlns="http://www.w3.org/2000/svg" xmlns:xlink="http://www.w3.org/1999/xlink" width="2000" zoomAndPan="magnify" viewBox="0 0 1500 1499.999933" height="2000" preserveAspectRatio="xMidYMid meet" version="1.0"><defs><g/><clipPath id="812dd1b783"><path d="M 216.96875 216.96875 L 1283.03125 216.96875 L 1283.03125 1283.03125 L 216.96875 1283.03125 Z M 216.96875 216.96875 " clip-rule="nonzero"/></clipPath><clipPath id="aa2d7e9f20"><path d="M 750 216.96875 C 455.617188 216.96875 216.96875 455.613281 216.96875 750 C 216.96875 1044.382812 455.617188 1283.03125 750 1283.03125 C 1044.382812 1283.03125 1283.03125 1044.382812 1283.03125 750 C 1283.03125 455.613281 1044.382812 216.96875 750 216.96875 Z M 750 216.96875 " clip-rule="nonzero"/></clipPath><clipPath id="a5508b7023"><path d="M 0.96875 0.96875 L 1067.03125 0.96875 L 1067.03125 1067.03125 L 0.96875 1067.03125 Z M 0.96875 0.96875 " clip-rule="nonzero"/></clipPath><clipPath id="d9212db0d6"><path d="M 534 0.96875 C 239.617188 0.96875 0.96875 239.613281 0.96875 534 C 0.96875 828.382812 239.617188 1067.03125 534 1067.03125 C 828.382812 1067.03125 1067.03125 828.382812 1067.03125 534 C 1067.03125 239.613281 828.382812 0.96875 534 0.96875 Z M 534 0.96875 " clip-rule="nonzero"/></clipPath><linearGradient x1="0.000000273525" gradientTransform="matrix(4.164302, 0, 0, 4.164302, 0.969287, 0.969234)" y1="128" x2="255.999997" gradientUnits="userSpaceOnUse" y2="128" id="d79225bb87"><stop stop-opacity="1" stop-color="rgb(99.998474%, 99.998474%, 99.998474%)" offset="0"/><stop stop-opacity="1" stop-color="rgb(99.992371%, 99.958801%, 99.891663%)" offset="0.015625"/><stop stop-opacity="1" stop-color="rgb(99.981689%, 99.879456%, 99.676514%)" offset="0.03125"/><stop stop-opacity="1" stop-color="rgb(99.969482%, 99.80011%, 99.462891%)" offset="0.046875"/><stop stop-opacity="1" stop-color="rgb(99.957275%, 99.720764%, 99.247742%)" offset="0.0625"/><stop stop-opacity="1" stop-color="rgb(99.945068%, 99.639893%, 99.034119%)" offset="0.078125"/><stop stop-opacity="1" stop-color="rgb(99.932861%, 99.560547%, 98.81897%)" offset="0.09375"/><stop stop-opacity="1" stop-color="rgb(99.920654%, 99.481201%, 98.603821%)" offset="0.109375"/><stop stop-opacity="1" stop-color="rgb(99.908447%, 99.401855%, 98.390198%)" offset="0.125"/><stop stop-opacity="1" stop-color="rgb(99.89624%, 99.320984%, 98.175049%)" offset="0.140625"/><stop stop-opacity="1" stop-color="rgb(99.884033%, 99.241638%, 97.961426%)" offset="0.15625"/><stop stop-opacity="1" stop-color="rgb(99.871826%, 99.162292%, 97.746277%)" offset="0.171875"/><stop stop-opacity="1" stop-color="rgb(99.859619%, 99.082947%, 97.531128%)" offset="0.1875"/><stop stop-opacity="1" stop-color="rgb(99.847412%, 99.003601%, 97.317505%)" offset="0.203125"/><stop stop-opacity="1" stop-color="rgb(99.835205%, 98.922729%, 97.102356%)" offset="0.21875"/><stop stop-opacity="1" stop-color="rgb(99.822998%, 98.843384%, 96.888733%)" offset="0.234375"/><stop stop-opacity="1" stop-color="rgb(99.810791%, 98.764038%, 96.673584%)" offset="0.25"/><stop stop-opacity="1" stop-color="rgb(99.798584%, 98.684692%, 96.458435%)" offset="0.265625"/><stop stop-opacity="1" stop-color="rgb(99.786377%, 98.603821%, 96.244812%)" offset="0.28125"/><stop stop-opacity="1" stop-color="rgb(99.77417%, 98.524475%, 96.029663%)" offset="0.296875"/><stop stop-opacity="1" stop-color="rgb(99.761963%, 98.445129%, 95.81604%)" offset="0.3125"/><stop stop-opacity="1" stop-color="rgb(99.749756%, 98.365784%, 95.600891%)" offset="0.328125"/><stop stop-opacity="1" stop-color="rgb(99.737549%, 98.286438%, 95.385742%)" offset="0.34375"/><stop stop-opacity="1" stop-color="rgb(99.725342%, 98.205566%, 95.172119%)" offset="0.359375"/><stop stop-opacity="1" stop-color="rgb(99.713135%, 98.126221%, 94.95697%)" offset="0.375"/><stop stop-opacity="1" stop-color="rgb(99.700928%, 98.046875%, 94.743347%)" offset="0.390625"/><stop stop-opacity="1" stop-color="rgb(99.688721%, 97.967529%, 94.528198%)" offset="0.40625"/><stop stop-opacity="1" stop-color="rgb(99.676514%, 97.886658%, 94.313049%)" offset="0.421875"/><stop stop-opacity="1" stop-color="rgb(99.664307%, 97.807312%, 94.099426%)" offset="0.4375"/><stop stop-opacity="1" stop-color="rgb(99.6521%, 97.727966%, 93.884277%)" offset="0.453125"/><stop stop-opacity="1" stop-color="rgb(99.639893%, 97.648621%, 93.670654%)" offset="0.46875"/><stop stop-opacity="1" stop-color="rgb(99.627686%, 97.569275%, 93.455505%)" offset="0.484375"/><stop stop-opacity="1" stop-color="rgb(99.615479%, 97.488403%, 93.240356%)" offset="0.5"/><stop stop-opacity="1" stop-color="rgb(99.603271%, 97.409058%, 93.026733%)" offset="0.515625"/><stop stop-opacity="1" stop-color="rgb(99.591064%, 97.329712%, 92.811584%)" offset="0.53125"/><stop stop-opacity="1" stop-color="rgb(99.578857%, 97.250366%, 92.597961%)" offset="0.546875"/><stop stop-opacity="1" stop-color="rgb(99.56665%, 97.169495%, 92.382812%)" offset="0.5625"/><stop stop-opacity="1" stop-color="rgb(99.554443%, 97.090149%, 92.167664%)" offset="0.578125"/><stop stop-opacity="1" stop-color="rgb(99.542236%, 97.010803%, 91.954041%)" offset="0.59375"/><stop stop-opacity="1" stop-color="rgb(99.530029%, 96.931458%, 91.738892%)" offset="0.609375"/><stop stop-opacity="1" stop-color="rgb(99.517822%, 96.852112%, 91.525269%)" offset="0.625"/><stop stop-opacity="1" stop-color="rgb(99.505615%, 96.77124%, 91.31012%)" offset="0.640625"/><stop stop-opacity="1" stop-color="rgb(99.493408%, 96.691895%, 91.096497%)" offset="0.65625"/><stop stop-opacity="1" stop-color="rgb(99.481201%, 96.612549%, 90.881348%)" offset="0.671875"/><stop stop-opacity="1" stop-color="rgb(99.468994%, 96.533203%, 90.666199%)" offset="0.6875"/><stop stop-opacity="1" stop-color="rgb(99.456787%, 96.452332%, 90.452576%)" offset="0.703125"/><stop stop-opacity="1" stop-color="rgb(99.44458%, 96.372986%, 90.237427%)" offset="0.71875"/><stop stop-opacity="1" stop-color="rgb(99.432373%, 96.29364%, 90.023804%)" offset="0.734375"/><stop stop-opacity="1" stop-color="rgb(99.420166%, 96.214294%, 89.808655%)" offset="0.75"/><stop stop-opacity="1" stop-color="rgb(99.407959%, 96.134949%, 89.593506%)" offset="0.765625"/><stop stop-opacity="1" stop-color="rgb(99.395752%, 96.054077%, 89.379883%)" offset="0.78125"/><stop stop-opacity="1" stop-color="rgb(99.383545%, 95.974731%, 89.164734%)" offset="0.796875"/><stop stop-opacity="1" stop-color="rgb(99.371338%, 95.895386%, 88.951111%)" offset="0.8125"/><stop stop-opacity="1" stop-color="rgb(99.359131%, 95.81604%, 88.735962%)" offset="0.828125"/><stop stop-opacity="1" stop-color="rgb(99.346924%, 95.735168%, 88.520813%)" offset="0.84375"/><stop stop-opacity="1" stop-color="rgb(99.334717%, 95.655823%, 88.30719%)" offset="0.859375"/><stop stop-opacity="1" stop-color="rgb(99.32251%, 95.576477%, 88.092041%)" offset="0.875"/><stop stop-opacity="1" stop-color="rgb(99.310303%, 95.497131%, 87.878418%)" offset="0.890625"/><stop stop-opacity="1" stop-color="rgb(99.298096%, 95.417786%, 87.663269%)" offset="0.90625"/><stop stop-opacity="1" stop-color="rgb(99.285889%, 95.336914%, 87.44812%)" offset="0.921875"/><stop stop-opacity="1" stop-color="rgb(99.273682%, 95.257568%, 87.234497%)" offset="0.9375"/><stop stop-opacity="1" stop-color="rgb(99.261475%, 95.178223%, 87.019348%)" offset="0.953125"/><stop stop-opacity="1" stop-color="rgb(99.249268%, 95.098877%, 86.805725%)" offset="0.96875"/><stop stop-opacity="1" stop-color="rgb(99.237061%, 95.018005%, 86.590576%)" offset="0.984375"/><stop stop-opacity="1" stop-color="rgb(99.224854%, 94.93866%, 86.375427%)" offset="1"/></linearGradient><clipPath id="c16a70e9d7"><rect x="0" width="1068" y="0" height="1068"/></clipPath><clipPath id="864fdf6e7a"><path d="M 543.816406 284 L 951.066406 284 L 951.066406 804.480469 L 543.816406 804.480469 Z M 543.816406 284 " clip-rule="nonzero"/></clipPath><clipPath id="606d6c4bb9"><path d="M 0.816406 512 L 9 512 L 9 520.480469 L 0.816406 520.480469 Z M 0.816406 512 " clip-rule="nonzero"/></clipPath><clipPath id="fa22751b37"><path d="M 9 0.398438 L 407.703125 0.398438 L 407.703125 520 L 9 520 Z M 9 0.398438 " clip-rule="nonzero"/></clipPath><clipPath id="e78b5fab53"><rect x="0" width="409" y="0" height="521"/></clipPath><clipPath id="4a01353d5e"><rect x="0" width="778" y="0" height="317"/></clipPath></defs><rect x="-150" width="1800" fill="#ffffff" y="-149.999993" height="1799.99992" fill-opacity="1"/><rect x="-150" width="1800" fill="#ffffff" y="-149.999993" height="1799.99992" fill-opacity="1"/><g clip-path="url(#812dd1b783)"><g clip-path="url(#aa2d7e9f20)"><g transform="matrix(1, 0, 0, 1, 216, 216)"><g clip-path="url(#c16a70e9d7)"><g clip-path="url(#a5508b7023)"><g clip-path="url(#d9212db0d6)"><path fill="url(#d79225bb87)" d="M 0.96875 0.96875 L 0.96875 1067.03125 L 1067.03125 1067.03125 L 1067.03125 0.96875 Z M 0.96875 0.96875 " fill-rule="nonzero"/></g></g></g></g></g></g><g clip-path="url(#864fdf6e7a)"><g transform="matrix(1, 0, 0, 1, 543, 284)"><g clip-path="url(#e78b5fab53)"><path fill="#3a2b20" d="M 152.6875 448 C 154.3125 449.21875 154.714844 452.0625 153.5 453.6875 L 112.890625 506.476562 C 112.078125 507.695312 110.859375 508.101562 109.640625 508.101562 C 108.832031 508.101562 108.019531 507.695312 107.207031 507.289062 C 105.582031 506.070312 105.175781 503.226562 106.394531 501.605469 L 147 448.8125 C 148.625 447.191406 151.0625 446.785156 152.6875 448 Z M 152.6875 448 " fill-opacity="1" fill-rule="nonzero"/><g clip-path="url(#606d6c4bb9)"><path fill="#3a2b20" d="M 0.816406 516.222656 C 0.816406 516.488281 0.839844 516.753906 0.894531 517.015625 C 0.945312 517.277344 1.023438 517.53125 1.125 517.777344 C 1.226562 518.023438 1.351562 518.257812 1.5 518.476562 C 1.648438 518.699219 1.816406 518.90625 2.003906 519.09375 C 2.191406 519.28125 2.398438 519.449219 2.621094 519.597656 C 2.839844 519.746094 3.074219 519.871094 3.320312 519.972656 C 3.566406 520.074219 3.820312 520.152344 4.082031 520.203125 C 4.34375 520.257812 4.609375 520.28125 4.875 520.28125 C 5.140625 520.28125 5.40625 520.257812 5.667969 520.203125 C 5.929688 520.152344 6.183594 520.074219 6.429688 519.972656 C 6.675781 519.871094 6.910156 519.746094 7.132812 519.597656 C 7.351562 519.449219 7.558594 519.28125 7.746094 519.09375 C 7.933594 518.90625 8.105469 518.699219 8.25 518.476562 C 8.398438 518.257812 8.523438 518.023438 8.628906 517.777344 C 8.730469 517.53125 8.804688 517.277344 8.859375 517.015625 C 8.910156 516.753906 8.9375 516.488281 8.9375 516.222656 C 8.9375 515.957031 8.910156 515.691406 8.859375 515.429688 C 8.804688 515.167969 8.730469 514.914062 8.628906 514.667969 C 8.523438 514.421875 8.398438 514.1875 8.25 513.964844 C 8.105469 513.746094 7.933594 513.539062 7.746094 513.351562 C 7.558594 513.164062 7.351562 512.992188 7.132812 512.847656 C 6.910156 512.699219 6.675781 512.574219 6.429688 512.46875 C 6.183594 512.367188 5.929688 512.292969 5.667969 512.238281 C 5.40625 512.1875 5.140625 512.160156 4.875 512.160156 C 4.609375 512.160156 4.34375 512.1875 4.082031 512.238281 C 3.820312 512.292969 3.566406 512.367188 3.320312 512.46875 C 3.074219 512.574219 2.839844 512.699219 2.621094 512.847656 C 2.398438 512.992188 2.191406 513.164062 2.003906 513.351562 C 1.816406 513.539062 1.648438 513.746094 1.5 513.964844 C 1.351562 514.1875 1.226562 514.421875 1.125 514.667969 C 1.023438 514.914062 0.945312 515.167969 0.890625 515.429688 C 0.839844 515.691406 0.816406 515.957031 0.816406 516.222656 Z M 0.816406 516.222656 " fill-opacity="1" fill-rule="nonzero"/></g><path fill="#3a2b20" d="M 77.5625 53.703125 L 110.046875 69.945312 C 112.078125 70.757812 112.890625 73.195312 111.671875 75.226562 C 110.859375 76.851562 109.640625 77.660156 108.019531 77.660156 C 107.613281 77.660156 106.800781 77.660156 106.394531 77.253906 L 73.90625 61.011719 C 71.878906 60.199219 71.066406 57.765625 72.285156 55.734375 C 73.097656 53.703125 75.53125 52.890625 77.5625 53.703125 Z M 77.5625 53.703125 " fill-opacity="1" fill-rule="nonzero"/><path fill="#3a2b20" d="M 106.394531 102.433594 C 108.425781 101.621094 110.859375 102.839844 111.671875 104.867188 C 112.484375 106.898438 111.265625 109.335938 109.238281 110.148438 L 76.75 122.332031 C 76.34375 122.332031 75.9375 122.734375 75.53125 122.734375 C 73.90625 122.734375 72.285156 121.925781 71.878906 120.300781 C 71.066406 118.269531 72.285156 115.832031 74.3125 115.019531 Z M 106.394531 102.433594 " fill-opacity="1" fill-rule="nonzero"/><path fill="#3a2b20" d="M 67.410156 89.84375 C 67.410156 87.40625 69.035156 85.785156 71.472656 85.785156 L 103.957031 85.785156 C 105.988281 85.785156 108.019531 87.40625 108.019531 89.84375 C 108.019531 92.28125 106.394531 93.90625 103.957031 93.90625 L 71.472656 93.90625 C 69.441406 93.90625 67.410156 92.28125 67.410156 89.84375 Z M 67.410156 89.84375 " fill-opacity="1" fill-rule="nonzero"/><g clip-path="url(#fa22751b37)"><path fill="#3a2b20" d="M 16.246094 506.476562 C 15.433594 507.289062 14.214844 508.101562 12.996094 508.101562 C 12.183594 508.101562 11.371094 507.695312 10.558594 507.289062 C 8.9375 505.664062 8.53125 503.226562 10.152344 501.605469 L 95.429688 398.054688 C 100.707031 391.964844 101.519531 381.40625 99.898438 374.097656 C 93.398438 346.078125 92.585938 299.378906 92.992188 280.699219 C 92.992188 277.449219 93.398438 273.796875 93.804688 269.734375 C 93.804688 267.703125 94.210938 265.675781 94.210938 264.050781 C 95.429688 247.808594 92.992188 216.539062 91.773438 203.546875 C 91.371094 200.703125 89.746094 195.421875 87.308594 190.144531 C 81.625 177.960938 79.59375 160.5 86.902344 150.347656 C 90.152344 145.882812 95.429688 141.414062 107.207031 142.632812 C 116.953125 143.851562 127.105469 149.535156 131.164062 156.441406 L 131.164062 32.992188 C 131.164062 15.125 147 0.507812 164.867188 0.507812 L 326.082031 0.507812 C 343.949219 0.507812 358.160156 15.125 358.160156 32.992188 L 358.160156 132.886719 C 362.222656 132.886719 360.191406 132.480469 361.003906 132.480469 C 367.5 132.480469 373.183594 135.324219 377.246094 140.199219 L 385.773438 150.753906 C 389.023438 154.816406 390.644531 160.09375 390.238281 165.375 C 389.429688 170.652344 386.992188 175.527344 382.523438 178.773438 L 367.5 190.550781 C 371.964844 191.769531 375.621094 194.207031 378.464844 197.859375 L 386.585938 208.824219 C 389.832031 213.289062 391.050781 218.570312 390.238281 223.847656 C 389.429688 229.128906 386.585938 234 382.117188 237.25 L 378.058594 240.089844 C 381.710938 241.714844 384.960938 244.152344 387.398438 247.402344 L 395.113281 258.769531 C 397.957031 263.238281 399.171875 268.515625 398.363281 273.796875 C 397.550781 279.074219 394.300781 283.542969 389.832031 286.789062 L 382.929688 291.664062 C 387.804688 292.882812 392.269531 295.722656 395.519531 300.191406 L 403.640625 311.96875 C 406.484375 316.433594 407.699219 321.710938 406.890625 326.992188 C 405.671875 332.269531 402.828125 336.738281 398.363281 339.984375 L 362.222656 364.351562 C 361.003906 365.164062 360.191406 365.570312 358.972656 365.976562 C 358.972656 383.84375 344.355469 398.460938 326.484375 398.460938 L 323.238281 398.460938 L 273.695312 442.722656 C 266.386719 449.21875 254.609375 455.71875 246.894531 457.746094 C 240.398438 459.371094 231.464844 466.679688 226.996094 473.179688 L 194.511719 518.253906 C 193.699219 519.472656 192.480469 519.878906 191.261719 519.878906 C 190.453125 519.878906 189.640625 519.472656 188.828125 519.066406 C 187.203125 517.847656 186.796875 515.410156 188.015625 513.378906 L 220.5 468.304688 C 226.1875 460.183594 236.742188 451.65625 244.867188 449.625 C 251.769531 448 262.328125 441.503906 268.417969 436.226562 L 311.054688 398.460938 L 164.460938 398.460938 C 146.59375 398.460938 130.757812 383.84375 130.757812 365.976562 L 130.757812 169.027344 C 126.699219 160.5 116.546875 152.378906 105.582031 151.160156 C 99.085938 150.347656 95.023438 151.566406 92.585938 155.628906 C 87.308594 162.53125 89.339844 177.148438 93.804688 186.894531 C 95.429688 190.550781 98.679688 197.859375 99.085938 203.140625 C 100.304688 219.382812 102.738281 248.621094 101.519531 264.863281 C 101.519531 266.488281 101.113281 268.515625 101.113281 270.546875 C 100.707031 274.203125 100.304688 277.855469 100.304688 280.699219 C 100.304688 299.378906 100.707031 345.265625 107.207031 372.066406 C 109.238281 381.40625 108.425781 394.804688 101.113281 403.332031 Z M 377.652344 172.277344 C 380.089844 170.246094 381.710938 167.40625 382.117188 164.5625 C 382.523438 161.3125 381.710938 158.472656 379.683594 156.035156 L 371.15625 145.882812 C 368.71875 143.039062 365.0625 141.414062 361.410156 141.414062 C 358.566406 141.414062 356.128906 142.226562 353.691406 143.851562 L 319.582031 170.246094 C 317.148438 172.277344 315.523438 175.121094 315.117188 177.960938 C 314.710938 181.210938 315.523438 184.054688 317.550781 186.488281 L 325.675781 196.640625 C 329.328125 201.109375 335.824219 202.328125 341.105469 199.890625 L 350.039062 193.394531 Z M 332.578125 342.421875 L 340.699219 354.199219 C 343.136719 357.445312 346.789062 359.476562 350.851562 359.476562 C 353.289062 359.476562 355.722656 358.664062 357.753906 357.445312 L 393.894531 333.082031 C 396.738281 331.457031 398.363281 328.617188 399.171875 325.367188 C 399.578125 322.117188 399.171875 318.871094 397.144531 316.433594 L 389.023438 304.65625 C 386.585938 301.410156 382.929688 299.378906 378.871094 299.378906 C 376.433594 299.378906 373.996094 300.191406 371.964844 301.410156 L 335.824219 325.773438 C 332.984375 327.398438 331.359375 330.238281 330.546875 333.488281 C 330.140625 336.738281 330.953125 339.984375 332.578125 342.421875 Z M 324.457031 290.039062 L 332.171875 301.410156 C 334.609375 304.65625 338.261719 306.6875 342.324219 306.6875 C 344.757812 306.6875 347.195312 305.875 349.226562 304.65625 L 385.367188 279.886719 C 388.210938 278.261719 389.832031 275.421875 390.644531 272.171875 C 391.050781 268.921875 390.644531 265.675781 388.617188 263.238281 L 380.898438 251.867188 C 378.464844 248.621094 374.808594 246.589844 370.75 246.589844 C 368.3125 246.589844 365.875 247.402344 363.84375 248.621094 L 327.703125 273.390625 C 324.863281 275.015625 323.238281 277.855469 322.425781 281.105469 C 322.019531 283.949219 322.832031 287.195312 324.457031 290.039062 Z M 317.148438 242.121094 L 325.269531 253.085938 C 327.703125 256.335938 331.765625 257.960938 335.824219 257.960938 L 377.652344 230.347656 C 380.089844 228.316406 382.117188 225.878906 382.523438 222.628906 C 382.929688 219.382812 382.117188 216.132812 380.496094 213.695312 L 372.371094 202.734375 C 369.9375 199.484375 366.28125 197.859375 362.222656 197.859375 C 359.785156 197.859375 357.347656 198.671875 355.316406 199.890625 L 319.988281 225.472656 C 317.550781 227.503906 315.523438 229.941406 315.117188 233.1875 C 314.304688 236.4375 315.117188 239.6875 317.148438 242.121094 Z M 209.128906 378.15625 L 281.816406 378.15625 C 283.847656 378.15625 285.878906 376.53125 285.878906 374.097656 C 285.878906 371.660156 284.253906 370.035156 281.816406 370.035156 L 209.128906 370.035156 C 206.695312 370.035156 205.070312 371.660156 205.070312 374.097656 C 205.070312 376.53125 206.695312 378.15625 209.128906 378.15625 Z M 211.566406 157.253906 L 272.074219 246.589844 C 272.882812 247.808594 274.101562 248.214844 275.320312 248.214844 C 276.132812 248.214844 276.945312 247.808594 277.757812 247.402344 C 279.789062 246.183594 280.195312 243.746094 278.976562 241.714844 L 218.46875 152.378906 C 217.253906 150.347656 214.816406 149.941406 212.785156 151.160156 C 211.160156 152.785156 210.347656 155.222656 211.566406 157.253906 Z M 210.753906 184.054688 C 208.726562 185.273438 208.320312 187.707031 209.535156 189.738281 L 242.023438 238.46875 C 242.835938 239.6875 244.054688 240.089844 245.269531 240.089844 C 246.082031 240.089844 246.894531 239.6875 247.707031 239.28125 C 249.738281 238.0625 250.144531 235.625 248.925781 233.59375 L 216.441406 184.867188 C 215.222656 183.242188 212.785156 182.835938 210.753906 184.054688 Z M 242.023438 165.375 L 274.507812 214.101562 C 275.320312 215.320312 276.539062 215.726562 277.757812 215.726562 C 278.570312 215.726562 279.382812 215.320312 280.195312 214.914062 C 282.222656 213.695312 282.628906 211.261719 281.410156 209.230469 L 248.925781 160.5 C 247.707031 158.472656 245.269531 158.066406 243.242188 159.28125 C 241.210938 160.90625 240.804688 163.34375 242.023438 165.375 Z M 198.167969 19.1875 C 201.820312 24.871094 210.347656 24.871094 210.347656 24.871094 L 280.601562 24.871094 C 286.691406 24.871094 290.75 22.4375 292.78125 20 L 297.65625 8.628906 L 194.511719 8.628906 Z M 198.167969 19.1875 " fill-opacity="1" fill-rule="nonzero"/></g></g></g></g><g fill="#000000" fill-opacity="1"><g transform="translate(391.116093, 1105.202453)"><g><path d="M 8.546875 -18.875 C 9.648438 -18.875 10.640625 -18.800781 11.515625 -18.65625 C 12.390625 -18.507812 13.222656 -18.242188 14.015625 -17.859375 C 14.960938 -17.398438 15.78125 -16.773438 16.46875 -15.984375 C 17.164062 -15.203125 17.695312 -14.289062 18.0625 -13.25 C 18.4375 -12.21875 18.625 -11.125 18.625 -9.96875 C 18.625 -8.9375 18.476562 -7.914062 18.1875 -6.90625 C 17.894531 -5.894531 17.476562 -4.96875 16.9375 -4.125 C 16.40625 -3.28125 15.789062 -2.582031 15.09375 -2.03125 C 14.144531 -1.269531 13.097656 -0.738281 11.953125 -0.4375 C 10.804688 -0.144531 9.46875 0 7.9375 0 L 1.46875 0 L 4.125 -18.875 Z M 5.78125 -1.8125 C 6.988281 -1.8125 7.96875 -1.828125 8.71875 -1.859375 C 9.476562 -1.898438 10.195312 -1.984375 10.875 -2.109375 C 11.5625 -2.242188 12.195312 -2.460938 12.78125 -2.765625 C 13.550781 -3.160156 14.226562 -3.710938 14.8125 -4.421875 C 15.40625 -5.140625 15.867188 -5.972656 16.203125 -6.921875 C 16.535156 -7.867188 16.703125 -8.863281 16.703125 -9.90625 C 16.703125 -11.289062 16.398438 -12.535156 15.796875 -13.640625 C 15.191406 -14.753906 14.351562 -15.585938 13.28125 -16.140625 C 12.738281 -16.421875 12.1875 -16.628906 11.625 -16.765625 C 11.0625 -16.910156 10.515625 -16.992188 9.984375 -17.015625 C 9.460938 -17.046875 8.800781 -17.0625 8 -17.0625 L 5.765625 -17.0625 L 3.578125 -1.8125 Z M 5.78125 -1.8125 "/></g></g></g><g fill="#000000" fill-opacity="1"><g transform="translate(412.854796, 1105.202453)"><g><path d="M 4.1875 -18.875 L 6.078125 -18.875 L 3.390625 0 L 1.46875 0 Z M 4.1875 -18.875 "/></g></g></g><g fill="#000000" fill-opacity="1"><g transform="translate(421.529806, 1105.202453)"><g><path d="M 11.4375 0.453125 C 9.507812 0.453125 7.804688 0.0507812 6.328125 -0.75 C 4.847656 -1.5625 3.703125 -2.671875 2.890625 -4.078125 C 2.085938 -5.484375 1.6875 -7.050781 1.6875 -8.78125 C 1.6875 -10.707031 2.160156 -12.476562 3.109375 -14.09375 C 4.066406 -15.707031 5.363281 -16.988281 7 -17.9375 C 8.644531 -18.882812 10.445312 -19.359375 12.40625 -19.359375 C 14.144531 -19.359375 15.75 -18.976562 17.21875 -18.21875 C 18.695312 -17.46875 20.015625 -16.335938 21.171875 -14.828125 L 19.640625 -13.703125 C 17.691406 -16.296875 15.265625 -17.59375 12.359375 -17.59375 C 10.847656 -17.59375 9.414062 -17.195312 8.0625 -16.40625 C 6.71875 -15.613281 5.640625 -14.546875 4.828125 -13.203125 C 4.015625 -11.867188 3.609375 -10.410156 3.609375 -8.828125 C 3.609375 -7.453125 3.941406 -6.1875 4.609375 -5.03125 C 5.285156 -3.882812 6.207031 -2.976562 7.375 -2.3125 C 8.539062 -1.644531 9.828125 -1.3125 11.234375 -1.3125 C 12.523438 -1.3125 13.722656 -1.546875 14.828125 -2.015625 C 15.929688 -2.492188 16.878906 -3.1875 17.671875 -4.09375 C 18.460938 -5.007812 19.015625 -6.117188 19.328125 -7.421875 L 12.40625 -7.421875 L 12.40625 -9.234375 L 21.609375 -9.234375 C 21.492188 -7.316406 20.988281 -5.625 20.09375 -4.15625 C 19.195312 -2.695312 18 -1.5625 16.5 -0.75 C 15 0.0507812 13.3125 0.453125 11.4375 0.453125 Z M 11.4375 0.453125 "/></g></g></g><g fill="#000000" fill-opacity="1"><g transform="translate(446.054733, 1105.202453)"><g><path d="M 4.1875 -18.875 L 6.078125 -18.875 L 3.390625 0 L 1.46875 0 Z M 4.1875 -18.875 "/></g></g></g><g fill="#000000" fill-opacity="1"><g transform="translate(454.729743, 1105.202453)"><g><path d="M 5.96875 -17.0625 L 1.390625 -17.0625 L 1.625 -18.875 L 12.90625 -18.875 L 12.671875 -17.0625 L 7.859375 -17.0625 L 5.59375 0 L 3.703125 0 Z M 5.96875 -17.0625 "/></g></g></g><g fill="#000000" fill-opacity="1"><g transform="translate(467.82065, 1105.202453)"><g><path d="M 15.09375 0 L 13.046875 -6.1875 L 5.046875 -6.1875 L 1.5 0 L -0.609375 0 L 10.25 -18.875 L 10.703125 -18.875 L 17.046875 0 Z M 6.09375 -8 L 12.40625 -8 L 10.09375 -14.9375 Z M 6.09375 -8 "/></g></g></g><g fill="#000000" fill-opacity="1"><g transform="translate(487.877105, 1105.202453)"><g><path d="M 6.015625 -18.875 L 3.609375 -1.8125 L 11.828125 -1.8125 L 11.625 0 L 1.46875 0 L 4.125 -18.875 Z M 6.015625 -18.875 "/></g></g></g><g fill="#000000" fill-opacity="1"><g transform="translate(502.650259, 1105.202453)"><g/></g></g><g fill="#000000" fill-opacity="1"><g transform="translate(511.824677, 1105.202453)"><g><path d="M 11.28125 0.453125 C 9.320312 0.453125 7.613281 0.0664062 6.15625 -0.703125 C 4.695312 -1.472656 3.578125 -2.535156 2.796875 -3.890625 C 2.015625 -5.253906 1.625 -6.796875 1.625 -8.515625 C 1.625 -10.515625 2.125 -12.34375 3.125 -14 C 4.125 -15.65625 5.492188 -16.960938 7.234375 -17.921875 C 8.984375 -18.878906 10.921875 -19.359375 13.046875 -19.359375 C 14.585938 -19.359375 15.96875 -19.109375 17.1875 -18.609375 C 18.40625 -18.117188 19.628906 -17.34375 20.859375 -16.28125 L 19.703125 -14.703125 C 18.710938 -15.628906 17.640625 -16.328125 16.484375 -16.796875 C 15.328125 -17.273438 14.117188 -17.515625 12.859375 -17.515625 C 11.171875 -17.515625 9.617188 -17.113281 8.203125 -16.3125 C 6.785156 -15.519531 5.65625 -14.4375 4.8125 -13.0625 C 3.96875 -11.695312 3.546875 -10.203125 3.546875 -8.578125 C 3.546875 -7.117188 3.867188 -5.84375 4.515625 -4.75 C 5.171875 -3.65625 6.082031 -2.804688 7.25 -2.203125 C 8.425781 -1.609375 9.78125 -1.3125 11.3125 -1.3125 C 12.46875 -1.3125 13.59375 -1.492188 14.6875 -1.859375 C 15.78125 -2.234375 16.828125 -2.789062 17.828125 -3.53125 L 18.90625 -2.03125 C 18.050781 -1.46875 17.265625 -1.007812 16.546875 -0.65625 C 15.828125 -0.300781 15.039062 -0.03125 14.1875 0.15625 C 13.332031 0.351562 12.363281 0.453125 11.28125 0.453125 Z M 11.28125 0.453125 "/></g></g></g><g fill="#000000" fill-opacity="1"><g transform="translate(535.035354, 1105.202453)"><g><path d="M 15.09375 0 L 13.046875 -6.1875 L 5.046875 -6.1875 L 1.5 0 L -0.609375 0 L 10.25 -18.875 L 10.703125 -18.875 L 17.046875 0 Z M 6.09375 -8 L 12.40625 -8 L 10.09375 -14.9375 Z M 6.09375 -8 "/></g></g></g><g fill="#000000" fill-opacity="1"><g transform="translate(555.091809, 1105.202453)"><g><path d="M 4.125 -18.875 L 13.140625 -18.875 L 12.9375 -17.0625 L 5.765625 -17.0625 L 4.84375 -10.859375 L 12.09375 -10.859375 L 11.859375 -9.046875 L 4.609375 -9.046875 L 3.28125 0 L 1.421875 0 Z M 4.125 -18.875 "/></g></g></g><g fill="#000000" fill-opacity="1"><g transform="translate(569.9701, 1105.202453)"><g><path d="M 4.15625 -18.875 L 14.484375 -18.875 L 14.234375 -17.0625 L 5.8125 -17.0625 L 4.890625 -10.859375 L 13.390625 -10.859375 L 13.140625 -9.046875 L 4.65625 -9.046875 L 3.609375 -1.8125 L 12.171875 -1.8125 L 11.96875 0 L 1.46875 0 Z M 11.90625 -24.609375 L 14.671875 -24.609375 L 10.296875 -20.640625 L 8.546875 -20.640625 Z M 11.90625 -24.609375 "/></g></g></g><g fill="#000000" fill-opacity="1"><g transform="translate(586.188929, 1105.202453)"><g/></g></g><g fill="#000000" fill-opacity="1"><g transform="translate(595.363359, 1105.202453)"><g><path d="M 5.859375 0.453125 C 4.546875 0.453125 3.441406 0.0664062 2.546875 -0.703125 C 1.648438 -1.472656 1.007812 -2.597656 0.625 -4.078125 L 2.390625 -4.65625 C 2.648438 -3.53125 3.082031 -2.691406 3.6875 -2.140625 C 4.300781 -1.585938 5.019531 -1.3125 5.84375 -1.3125 C 6.4375 -1.3125 6.988281 -1.457031 7.5 -1.75 C 8.019531 -2.050781 8.4375 -2.472656 8.75 -3.015625 C 9.070312 -3.566406 9.234375 -4.175781 9.234375 -4.84375 C 9.234375 -5.613281 9.050781 -6.300781 8.6875 -6.90625 C 8.332031 -7.507812 7.742188 -8.210938 6.921875 -9.015625 L 5.125 -10.75 C 4.507812 -11.351562 4.050781 -11.984375 3.75 -12.640625 C 3.457031 -13.304688 3.3125 -14.046875 3.3125 -14.859375 C 3.3125 -15.648438 3.484375 -16.382812 3.828125 -17.0625 C 4.171875 -17.75 4.675781 -18.300781 5.34375 -18.71875 C 6.007812 -19.144531 6.804688 -19.359375 7.734375 -19.359375 C 8.796875 -19.359375 9.726562 -19.023438 10.53125 -18.359375 C 11.34375 -17.691406 11.941406 -16.707031 12.328125 -15.40625 L 10.578125 -14.9375 C 10.328125 -15.738281 9.941406 -16.378906 9.421875 -16.859375 C 8.910156 -17.347656 8.300781 -17.59375 7.59375 -17.59375 C 7.144531 -17.59375 6.738281 -17.476562 6.375 -17.25 C 6.019531 -17.019531 5.738281 -16.695312 5.53125 -16.28125 C 5.332031 -15.875 5.234375 -15.398438 5.234375 -14.859375 C 5.234375 -14.265625 5.332031 -13.738281 5.53125 -13.28125 C 5.738281 -12.820312 6.085938 -12.363281 6.578125 -11.90625 L 7.9375 -10.59375 C 9.039062 -9.539062 9.851562 -8.578125 10.375 -7.703125 C 10.894531 -6.828125 11.15625 -5.898438 11.15625 -4.921875 C 11.15625 -4.023438 10.925781 -3.164062 10.46875 -2.34375 C 10.007812 -1.519531 9.375 -0.847656 8.5625 -0.328125 C 7.757812 0.191406 6.859375 0.453125 5.859375 0.453125 Z M 5.859375 0.453125 "/></g></g></g><g fill="#000000" fill-opacity="1"><g transform="translate(610.13649, 1105.202453)"><g><path d="M 6.734375 -8.46875 L 1.8125 -18.875 L 3.84375 -18.875 L 7.859375 -10.3125 L 14.703125 -18.875 L 16.9375 -18.875 L 8.578125 -8.359375 L 7.421875 0 L 5.578125 0 Z M 6.734375 -8.46875 "/></g></g></g><g fill="#000000" fill-opacity="1"><g transform="translate(627.406722, 1105.202453)"><g><path d="M 5.859375 0.453125 C 4.546875 0.453125 3.441406 0.0664062 2.546875 -0.703125 C 1.648438 -1.472656 1.007812 -2.597656 0.625 -4.078125 L 2.390625 -4.65625 C 2.648438 -3.53125 3.082031 -2.691406 3.6875 -2.140625 C 4.300781 -1.585938 5.019531 -1.3125 5.84375 -1.3125 C 6.4375 -1.3125 6.988281 -1.457031 7.5 -1.75 C 8.019531 -2.050781 8.4375 -2.472656 8.75 -3.015625 C 9.070312 -3.566406 9.234375 -4.175781 9.234375 -4.84375 C 9.234375 -5.613281 9.050781 -6.300781 8.6875 -6.90625 C 8.332031 -7.507812 7.742188 -8.210938 6.921875 -9.015625 L 5.125 -10.75 C 4.507812 -11.351562 4.050781 -11.984375 3.75 -12.640625 C 3.457031 -13.304688 3.3125 -14.046875 3.3125 -14.859375 C 3.3125 -15.648438 3.484375 -16.382812 3.828125 -17.0625 C 4.171875 -17.75 4.675781 -18.300781 5.34375 -18.71875 C 6.007812 -19.144531 6.804688 -19.359375 7.734375 -19.359375 C 8.796875 -19.359375 9.726562 -19.023438 10.53125 -18.359375 C 11.34375 -17.691406 11.941406 -16.707031 12.328125 -15.40625 L 10.578125 -14.9375 C 10.328125 -15.738281 9.941406 -16.378906 9.421875 -16.859375 C 8.910156 -17.347656 8.300781 -17.59375 7.59375 -17.59375 C 7.144531 -17.59375 6.738281 -17.476562 6.375 -17.25 C 6.019531 -17.019531 5.738281 -16.695312 5.53125 -16.28125 C 5.332031 -15.875 5.234375 -15.398438 5.234375 -14.859375 C 5.234375 -14.265625 5.332031 -13.738281 5.53125 -13.28125 C 5.738281 -12.820312 6.085938 -12.363281 6.578125 -11.90625 L 7.9375 -10.59375 C 9.039062 -9.539062 9.851562 -8.578125 10.375 -7.703125 C 10.894531 -6.828125 11.15625 -5.898438 11.15625 -4.921875 C 11.15625 -4.023438 10.925781 -3.164062 10.46875 -2.34375 C 10.007812 -1.519531 9.375 -0.847656 8.5625 -0.328125 C 7.757812 0.191406 6.859375 0.453125 5.859375 0.453125 Z M 5.859375 0.453125 "/></g></g></g><g fill="#000000" fill-opacity="1"><g transform="translate(642.179899, 1105.202453)"><g><path d="M 5.96875 -17.0625 L 1.390625 -17.0625 L 1.625 -18.875 L 12.90625 -18.875 L 12.671875 -17.0625 L 7.859375 -17.0625 L 5.59375 0 L 3.703125 0 Z M 5.96875 -17.0625 "/></g></g></g><g fill="#000000" fill-opacity="1"><g transform="translate(655.270795, 1105.202453)"><g><path d="M 4.15625 -18.875 L 14.484375 -18.875 L 14.234375 -17.0625 L 5.8125 -17.0625 L 4.890625 -10.859375 L 13.390625 -10.859375 L 13.140625 -9.046875 L 4.65625 -9.046875 L 3.609375 -1.8125 L 12.171875 -1.8125 L 11.96875 0 L 1.46875 0 Z M 4.15625 -18.875 "/></g></g></g><g fill="#000000" fill-opacity="1"><g transform="translate(671.489635, 1105.202453)"><g><path d="M 5.5 -18.875 L 5.8125 -18.875 L 11.328125 -3.546875 L 20.875 -18.875 L 21.171875 -18.875 L 21.171875 0 L 19.40625 0 L 19.40625 -13.015625 L 11.203125 0 L 10.734375 0 L 5.84375 -13.484375 L 1.96875 0 L 0.046875 0 Z M 5.5 -18.875 "/></g></g></g><g fill="#000000" fill-opacity="1"><g transform="translate(696.724245, 1105.202453)"><g><path d="M 5.859375 0.453125 C 4.546875 0.453125 3.441406 0.0664062 2.546875 -0.703125 C 1.648438 -1.472656 1.007812 -2.597656 0.625 -4.078125 L 2.390625 -4.65625 C 2.648438 -3.53125 3.082031 -2.691406 3.6875 -2.140625 C 4.300781 -1.585938 5.019531 -1.3125 5.84375 -1.3125 C 6.4375 -1.3125 6.988281 -1.457031 7.5 -1.75 C 8.019531 -2.050781 8.4375 -2.472656 8.75 -3.015625 C 9.070312 -3.566406 9.234375 -4.175781 9.234375 -4.84375 C 9.234375 -5.613281 9.050781 -6.300781 8.6875 -6.90625 C 8.332031 -7.507812 7.742188 -8.210938 6.921875 -9.015625 L 5.125 -10.75 C 4.507812 -11.351562 4.050781 -11.984375 3.75 -12.640625 C 3.457031 -13.304688 3.3125 -14.046875 3.3125 -14.859375 C 3.3125 -15.648438 3.484375 -16.382812 3.828125 -17.0625 C 4.171875 -17.75 4.675781 -18.300781 5.34375 -18.71875 C 6.007812 -19.144531 6.804688 -19.359375 7.734375 -19.359375 C 8.796875 -19.359375 9.726562 -19.023438 10.53125 -18.359375 C 11.34375 -17.691406 11.941406 -16.707031 12.328125 -15.40625 L 10.578125 -14.9375 C 10.328125 -15.738281 9.941406 -16.378906 9.421875 -16.859375 C 8.910156 -17.347656 8.300781 -17.59375 7.59375 -17.59375 C 7.144531 -17.59375 6.738281 -17.476562 6.375 -17.25 C 6.019531 -17.019531 5.738281 -16.695312 5.53125 -16.28125 C 5.332031 -15.875 5.234375 -15.398438 5.234375 -14.859375 C 5.234375 -14.265625 5.332031 -13.738281 5.53125 -13.28125 C 5.738281 -12.820312 6.085938 -12.363281 6.578125 -11.90625 L 7.9375 -10.59375 C 9.039062 -9.539062 9.851562 -8.578125 10.375 -7.703125 C 10.894531 -6.828125 11.15625 -5.898438 11.15625 -4.921875 C 11.15625 -4.023438 10.925781 -3.164062 10.46875 -2.34375 C 10.007812 -1.519531 9.375 -0.847656 8.5625 -0.328125 C 7.757812 0.191406 6.859375 0.453125 5.859375 0.453125 Z M 5.859375 0.453125 "/></g></g></g><g transform="matrix(1, 0, 0, 1, 347, 804)"><g clip-path="url(#4a01353d5e)"><g fill="#000000" fill-opacity="1"><g transform="translate(5.039076, 240.018153)"><g><path d="M -0.542969 -152.765625 L -0.542969 -221.742188 L 148.734375 -221.742188 L 148.734375 -148.953125 L 106.785156 -148.953125 L 106.785156 -152.765625 L 110.597656 -152.765625 L 110.597656 3.8125 L 37.59375 3.8125 L 37.59375 -152.765625 L 41.40625 -152.765625 L 41.40625 -148.953125 L -0.542969 -148.953125 Z M 7.082031 -152.765625 L 3.269531 -152.765625 L 3.269531 -156.582031 L 45.21875 -156.582031 L 45.21875 0 L 41.40625 0 L 41.40625 -3.8125 L 106.785156 -3.8125 L 106.785156 0 L 102.96875 0 L 102.96875 -156.582031 L 144.921875 -156.582031 L 144.921875 -152.765625 L 141.109375 -152.765625 L 141.109375 -217.925781 L 144.921875 -217.925781 L 144.921875 -214.113281 L 3.269531 -214.113281 L 3.269531 -217.925781 L 7.082031 -217.925781 Z M 7.082031 -152.765625 "/></g></g></g><g fill="#000000" fill-opacity="1"><g transform="translate(129.039492, 240.018153)"><g><path d="M -1.632812 -44.457031 C -1.632812 -50.222656 -0.742188 -55.945312 1.046875 -61.621094 C 2.875 -67.414062 5.804688 -72.6875 9.84375 -77.4375 C 13.941406 -82.257812 19.394531 -86.09375 26.203125 -88.945312 C 32.921875 -91.757812 41.113281 -93.164062 50.777344 -93.164062 L 84.773438 -93.164062 L 84.773438 -89.351562 L 80.960938 -89.351562 C 80.960938 -90.171875 80.753906 -90.808594 80.335938 -91.257812 C 79.761719 -91.878906 78.753906 -92.371094 77.3125 -92.734375 C 73.257812 -93.746094 67.027344 -94.253906 58.621094 -94.253906 L 10.835938 -94.253906 L 28.601562 -167.257812 L 84.773438 -167.257812 C 98.195312 -167.257812 110.003906 -165.207031 120.195312 -161.097656 C 130.675781 -156.875 138.859375 -150.210938 144.746094 -141.109375 C 150.601562 -132.050781 153.53125 -120.246094 153.53125 -105.695312 L 153.53125 3.8125 L 48.160156 3.8125 C 36.082031 3.8125 26.347656 1.429688 18.960938 -3.332031 C 11.550781 -8.113281 6.238281 -14.277344 3.027344 -21.824219 C -0.0820312 -29.128906 -1.632812 -36.675781 -1.632812 -44.457031 Z M 5.992188 -44.457031 C 5.992188 -37.710938 7.34375 -31.164062 10.046875 -24.8125 C 12.648438 -18.699219 16.996094 -13.679688 23.097656 -9.742188 C 29.222656 -5.789062 37.578125 -3.8125 48.160156 -3.8125 L 149.714844 -3.8125 L 149.714844 0 L 145.902344 0 L 145.902344 -105.695312 C 145.902344 -118.746094 143.382812 -129.171875 138.339844 -136.96875 C 133.332031 -144.71875 126.332031 -150.402344 117.34375 -154.023438 C 108.066406 -157.761719 97.210938 -159.632812 84.773438 -159.632812 L 31.597656 -159.632812 L 31.597656 -163.445312 L 35.304688 -162.542969 L 19.394531 -97.164062 L 15.691406 -98.066406 L 15.691406 -101.882812 L 58.621094 -101.882812 C 67.652344 -101.882812 74.5 -101.296875 79.160156 -100.132812 C 82.078125 -99.402344 84.335938 -98.171875 85.941406 -96.433594 C 87.707031 -94.519531 88.585938 -92.160156 88.585938 -89.351562 L 88.585938 -85.535156 L 50.777344 -85.535156 C 42.136719 -85.535156 34.925781 -84.328125 29.148438 -81.910156 C 23.464844 -79.53125 18.964844 -76.390625 15.65625 -72.496094 C 12.28125 -68.53125 9.839844 -64.140625 8.324219 -59.328125 C 6.769531 -54.398438 5.992188 -49.441406 5.992188 -44.457031 Z M 73.332031 -60.148438 C 73.332031 -59.652344 73.414062 -59.363281 73.578125 -59.277344 C 74.546875 -58.769531 75.664062 -58.511719 76.929688 -58.511719 L 84.773438 -58.511719 L 84.773438 -54.699219 L 80.960938 -54.699219 L 80.960938 -65.8125 L 84.773438 -65.8125 L 84.773438 -62 L 76.929688 -62 C 75.597656 -62 74.507812 -61.746094 73.660156 -61.234375 C 73.441406 -61.105469 73.332031 -60.742188 73.332031 -60.148438 Z M 65.703125 -60.148438 C 65.703125 -63.621094 67.046875 -66.164062 69.734375 -67.777344 C 71.792969 -69.011719 74.191406 -69.628906 76.929688 -69.628906 L 88.585938 -69.628906 L 88.585938 -50.886719 L 76.929688 -50.886719 C 74.414062 -50.886719 72.117188 -51.429688 70.039062 -52.519531 C 67.148438 -54.03125 65.703125 -56.574219 65.703125 -60.148438 Z M 65.703125 -60.148438 "/></g></g></g><g fill="#000000" fill-opacity="1"><g transform="translate(285.293107, 240.018153)"><g><path d="M 36.613281 0.914062 L -4.867188 -167.257812 L 68.605469 -167.257812 L 85.867188 -95.25 L 82.160156 -94.363281 L 78.390625 -94.945312 L 89.566406 -167.257812 L 143.398438 -167.257812 L 154.574219 -94.945312 L 150.804688 -94.363281 L 147.097656 -95.25 L 164.359375 -167.257812 L 236.710938 -167.257812 L 195.65625 3.8125 L 125.292969 3.8125 L 112.820312 -79.195312 L 116.589844 -79.761719 L 120.359375 -79.183594 L 107.660156 3.8125 L 37.328125 3.8125 Z M 44.019531 -0.914062 L 40.316406 0 L 40.316406 -3.8125 L 104.386719 -3.8125 L 104.386719 0 L 100.617188 -0.578125 L 112.820312 -80.339844 L 120.363281 -80.328125 L 132.347656 -0.566406 L 128.578125 0 L 128.578125 -3.8125 L 192.648438 -3.8125 L 192.648438 0 L 188.9375 -0.890625 L 228.167969 -164.335938 L 231.875 -163.445312 L 231.875 -159.632812 L 167.367188 -159.632812 L 167.367188 -163.445312 L 171.078125 -162.554688 L 154.515625 -93.472656 L 147.035156 -93.78125 L 136.359375 -162.863281 L 140.128906 -163.445312 L 140.128906 -159.632812 L 92.835938 -159.632812 L 92.835938 -163.445312 L 96.605469 -162.863281 L 85.925781 -93.78125 L 78.449219 -93.472656 L 61.886719 -162.554688 L 65.597656 -163.445312 L 65.597656 -159.632812 L 0 -159.632812 L 0 -163.445312 L 3.703125 -164.359375 Z M 44.019531 -0.914062 "/></g></g></g><g fill="#000000" fill-opacity="1"><g transform="translate(528.717503, 240.018153)"><g><path d="M -0.542969 -221.742188 L 72.460938 -221.742188 L 72.460938 3.8125 L -0.542969 3.8125 Z M 7.082031 -214.113281 L 7.082031 -3.8125 L 64.832031 -3.8125 L 64.832031 -214.113281 Z M 7.082031 -214.113281 "/></g></g></g><g fill="#000000" fill-opacity="1"><g transform="translate(612.18361, 240.018153)"><g><path d="M -1.632812 -44.457031 C -1.632812 -50.222656 -0.742188 -55.945312 1.046875 -61.621094 C 2.875 -67.414062 5.804688 -72.6875 9.84375 -77.4375 C 13.941406 -82.257812 19.394531 -86.09375 26.203125 -88.945312 C 32.921875 -91.757812 41.113281 -93.164062 50.777344 -93.164062 L 84.773438 -93.164062 L 84.773438 -89.351562 L 80.960938 -89.351562 C 80.960938 -90.171875 80.753906 -90.808594 80.335938 -91.257812 C 79.761719 -91.878906 78.753906 -92.371094 77.3125 -92.734375 C 73.257812 -93.746094 67.027344 -94.253906 58.621094 -94.253906 L 10.835938 -94.253906 L 28.601562 -167.257812 L 84.773438 -167.257812 C 98.195312 -167.257812 110.003906 -165.207031 120.195312 -161.097656 C 130.675781 -156.875 138.859375 -150.210938 144.746094 -141.109375 C 150.601562 -132.050781 153.53125 -120.246094 153.53125 -105.695312 L 153.53125 3.8125 L 48.160156 3.8125 C 36.082031 3.8125 26.347656 1.429688 18.960938 -3.332031 C 11.550781 -8.113281 6.238281 -14.277344 3.027344 -21.824219 C -0.0820312 -29.128906 -1.632812 -36.675781 -1.632812 -44.457031 Z M 5.992188 -44.457031 C 5.992188 -37.710938 7.34375 -31.164062 10.046875 -24.8125 C 12.648438 -18.699219 16.996094 -13.679688 23.097656 -9.742188 C 29.222656 -5.789062 37.578125 -3.8125 48.160156 -3.8125 L 149.714844 -3.8125 L 149.714844 0 L 145.902344 0 L 145.902344 -105.695312 C 145.902344 -118.746094 143.382812 -129.171875 138.339844 -136.96875 C 133.332031 -144.71875 126.332031 -150.402344 117.34375 -154.023438 C 108.066406 -157.761719 97.210938 -159.632812 84.773438 -159.632812 L 31.597656 -159.632812 L 31.597656 -163.445312 L 35.304688 -162.542969 L 19.394531 -97.164062 L 15.691406 -98.066406 L 15.691406 -101.882812 L 58.621094 -101.882812 C 67.652344 -101.882812 74.5 -101.296875 79.160156 -100.132812 C 82.078125 -99.402344 84.335938 -98.171875 85.941406 -96.433594 C 87.707031 -94.519531 88.585938 -92.160156 88.585938 -89.351562 L 88.585938 -85.535156 L 50.777344 -85.535156 C 42.136719 -85.535156 34.925781 -84.328125 29.148438 -81.910156 C 23.464844 -79.53125 18.964844 -76.390625 15.65625 -72.496094 C 12.28125 -68.53125 9.839844 -64.140625 8.324219 -59.328125 C 6.769531 -54.398438 5.992188 -49.441406 5.992188 -44.457031 Z M 73.332031 -60.148438 C 73.332031 -59.652344 73.414062 -59.363281 73.578125 -59.277344 C 74.546875 -58.769531 75.664062 -58.511719 76.929688 -58.511719 L 84.773438 -58.511719 L 84.773438 -54.699219 L 80.960938 -54.699219 L 80.960938 -65.8125 L 84.773438 -65.8125 L 84.773438 -62 L 76.929688 -62 C 75.597656 -62 74.507812 -61.746094 73.660156 -61.234375 C 73.441406 -61.105469 73.332031 -60.742188 73.332031 -60.148438 Z M 65.703125 -60.148438 C 65.703125 -63.621094 67.046875 -66.164062 69.734375 -67.777344 C 71.792969 -69.011719 74.191406 -69.628906 76.929688 -69.628906 L 88.585938 -69.628906 L 88.585938 -50.886719 L 76.929688 -50.886719 C 74.414062 -50.886719 72.117188 -51.429688 70.039062 -52.519531 C 67.148438 -54.03125 65.703125 -56.574219 65.703125 -60.148438 Z M 65.703125 -60.148438 "/></g></g></g><g fill="#fef1d9" fill-opacity="1"><g transform="translate(5.039076, 240.018153)"><g><path d="M 3.265625 -152.765625 L 3.265625 -217.921875 L 144.921875 -217.921875 L 144.921875 -152.765625 L 106.78125 -152.765625 L 106.78125 0 L 41.40625 0 L 41.40625 -152.765625 Z M 3.265625 -152.765625 "/></g></g></g><g fill="#fef1d9" fill-opacity="1"><g transform="translate(129.039492, 240.018153)"><g><path d="M 2.171875 -44.453125 C 2.171875 -49.828125 3.003906 -55.164062 4.671875 -60.46875 C 6.347656 -65.769531 9.039062 -70.597656 12.75 -74.953125 C 16.457031 -79.316406 21.429688 -82.804688 27.671875 -85.421875 C 33.921875 -88.035156 41.625 -89.34375 50.78125 -89.34375 L 84.765625 -89.34375 C 84.765625 -92.976562 82.585938 -95.335938 78.234375 -96.421875 C 73.878906 -97.515625 67.34375 -98.0625 58.625 -98.0625 L 15.6875 -98.0625 L 31.59375 -163.4375 L 84.765625 -163.4375 C 97.703125 -163.4375 109.035156 -161.472656 118.765625 -157.546875 C 128.503906 -153.628906 136.097656 -147.457031 141.546875 -139.03125 C 146.992188 -130.601562 149.71875 -119.488281 149.71875 -105.6875 L 149.71875 0 L 48.15625 0 C 36.820312 0 27.773438 -2.175781 21.015625 -6.53125 C 14.265625 -10.894531 9.4375 -16.488281 6.53125 -23.3125 C 3.625 -30.144531 2.171875 -37.191406 2.171875 -44.453125 Z M 69.515625 -60.140625 C 69.515625 -58.109375 70.273438 -56.691406 71.796875 -55.890625 C 73.328125 -55.097656 75.035156 -54.703125 76.921875 -54.703125 L 84.765625 -54.703125 L 84.765625 -65.8125 L 76.921875 -65.8125 C 74.890625 -65.8125 73.144531 -65.375 71.6875 -64.5 C 70.238281 -63.632812 69.515625 -62.179688 69.515625 -60.140625 Z M 69.515625 -60.140625 "/></g></g></g><g fill="#fef1d9" fill-opacity="1"><g transform="translate(285.293107, 240.018153)"><g><path d="M 40.3125 0 L 0 -163.4375 L 65.59375 -163.4375 L 82.15625 -94.359375 L 92.828125 -163.4375 L 140.125 -163.4375 L 150.796875 -94.359375 L 167.359375 -163.4375 L 231.875 -163.4375 L 192.640625 0 L 128.578125 0 L 116.59375 -79.765625 L 104.390625 0 Z M 40.3125 0 "/></g></g></g><g fill="#fef1d9" fill-opacity="1"><g transform="translate(528.717503, 240.018153)"><g><path d="M 3.265625 0 L 3.265625 -217.921875 L 68.640625 -217.921875 L 68.640625 0 Z M 3.265625 0 "/></g></g></g><g fill="#fef1d9" fill-opacity="1"><g transform="translate(612.18361, 240.018153)"><g><path d="M 2.171875 -44.453125 C 2.171875 -49.828125 3.003906 -55.164062 4.671875 -60.46875 C 6.347656 -65.769531 9.039062 -70.597656 12.75 -74.953125 C 16.457031 -79.316406 21.429688 -82.804688 27.671875 -85.421875 C 33.921875 -88.035156 41.625 -89.34375 50.78125 -89.34375 L 84.765625 -89.34375 C 84.765625 -92.976562 82.585938 -95.335938 78.234375 -96.421875 C 73.878906 -97.515625 67.34375 -98.0625 58.625 -98.0625 L 15.6875 -98.0625 L 31.59375 -163.4375 L 84.765625 -163.4375 C 97.703125 -163.4375 109.035156 -161.472656 118.765625 -157.546875 C 128.503906 -153.628906 136.097656 -147.457031 141.546875 -139.03125 C 146.992188 -130.601562 149.71875 -119.488281 149.71875 -105.6875 L 149.71875 0 L 48.15625 0 C 36.820312 0 27.773438 -2.175781 21.015625 -6.53125 C 14.265625 -10.894531 9.4375 -16.488281 6.53125 -23.3125 C 3.625 -30.144531 2.171875 -37.191406 2.171875 -44.453125 Z M 69.515625 -60.140625 C 69.515625 -58.109375 70.273438 -56.691406 71.796875 -55.890625 C 73.328125 -55.097656 75.035156 -54.703125 76.921875 -54.703125 L 84.765625 -54.703125 L 84.765625 -65.8125 L 76.921875 -65.8125 C 74.890625 -65.8125 73.144531 -65.375 71.6875 -64.5 C 70.238281 -63.632812 69.515625 -62.179688 69.515625 -60.140625 Z M 69.515625 -60.140625 "/></g></g></g></g></g><g fill="#3a2b20" fill-opacity="1"><g transform="translate(835.160682, 1167.286371)"><g><path d="M 32.046875 -3.625 C 26.503906 -2.507812 21.367188 -2.054688 16.640625 -2.265625 C 11.921875 -2.484375 7.785156 -3.101562 4.234375 -4.125 C 0.691406 -5.15625 -2.117188 -6.382812 -4.203125 -7.8125 C -6.285156 -9.238281 -7.460938 -10.597656 -7.734375 -11.890625 C -7.867188 -12.585938 -7.828125 -13.394531 -7.609375 -14.3125 C -7.390625 -15.238281 -6.773438 -16.117188 -5.765625 -16.953125 C -4.765625 -17.785156 -3.164062 -18.421875 -0.96875 -18.859375 C 0.59375 -19.171875 2.195312 -19.097656 3.84375 -18.640625 C 5.488281 -18.179688 7.253906 -17.632812 9.140625 -17 C 11.023438 -16.363281 13.132812 -15.890625 15.46875 -15.578125 C 17.8125 -15.265625 20.457031 -15.40625 23.40625 -16 C 25.570312 -16.425781 27.992188 -17.257812 30.671875 -18.5 C 33.347656 -19.738281 36.039062 -21.304688 38.75 -23.203125 C 41.457031 -25.097656 43.914062 -27.257812 46.125 -29.6875 C 48.34375 -32.113281 50.09375 -34.726562 51.375 -37.53125 C 52.65625 -40.34375 53.1875 -43.28125 52.96875 -46.34375 L 52.875 -46.859375 C 52.582031 -48.296875 51.5625 -49.601562 49.8125 -50.78125 C 48.070312 -51.957031 45.867188 -53.078125 43.203125 -54.140625 C 40.535156 -55.203125 37.617188 -56.269531 34.453125 -57.34375 C 31.285156 -58.425781 28.101562 -59.566406 24.90625 -60.765625 C 21.71875 -61.972656 18.742188 -63.3125 15.984375 -64.78125 C 13.234375 -66.25 10.914062 -67.921875 9.03125 -69.796875 C 7.144531 -71.671875 5.957031 -73.820312 5.46875 -76.25 C 4.96875 -78.726562 5.195312 -81.160156 6.15625 -83.546875 C 7.113281 -85.941406 8.570312 -88.257812 10.53125 -90.5 C 12.5 -92.75 14.773438 -94.832031 17.359375 -96.75 C 19.953125 -98.664062 22.625 -100.394531 25.375 -101.9375 C 28.125 -103.488281 30.773438 -104.765625 33.328125 -105.765625 C 35.878906 -106.773438 38.101562 -107.472656 40 -107.859375 C 43.207031 -108.503906 46.109375 -108.632812 48.703125 -108.25 C 51.296875 -107.875 53.472656 -106.882812 55.234375 -105.28125 C 57.003906 -103.675781 58.195312 -101.335938 58.8125 -98.265625 C 58.894531 -97.835938 58.976562 -97.414062 59.0625 -97 C 59.144531 -96.59375 59.195312 -96.140625 59.21875 -95.640625 C 56.625 -94.804688 53.929688 -94.0625 51.140625 -93.40625 C 48.347656 -92.757812 45.597656 -92.109375 42.890625 -91.453125 C 40.191406 -90.796875 37.671875 -90.070312 35.328125 -89.28125 C 32.984375 -88.488281 30.945312 -87.554688 29.21875 -86.484375 C 27.5 -85.421875 26.222656 -84.15625 25.390625 -82.6875 C 29.109375 -81.5 33.046875 -80.296875 37.203125 -79.078125 C 41.367188 -77.859375 45.472656 -76.546875 49.515625 -75.140625 C 53.566406 -73.734375 57.304688 -72.113281 60.734375 -70.28125 C 64.160156 -68.445312 67.03125 -66.3125 69.34375 -63.875 C 71.664062 -61.4375 73.15625 -58.59375 73.8125 -55.34375 C 73.894531 -54.90625 73.976562 -54.476562 74.0625 -54.0625 C 74.144531 -53.65625 74.1875 -53.222656 74.1875 -52.765625 C 74.5625 -47.304688 74.046875 -42.25 72.640625 -37.59375 C 71.234375 -32.9375 69.15625 -28.710938 66.40625 -24.921875 C 63.65625 -21.128906 60.425781 -17.800781 56.71875 -14.9375 C 53.019531 -12.070312 49.050781 -9.679688 44.8125 -7.765625 C 40.582031 -5.859375 36.328125 -4.476562 32.046875 -3.625 Z M 32.046875 -3.625 "/></g></g></g><g fill="#3a2b20" fill-opacity="1"><g transform="translate(919.847663, 1150.243335)"><g><path d="M 20.40625 -2.6875 C 19.113281 -2.425781 17.582031 -2.429688 15.8125 -2.703125 C 14.039062 -2.984375 12.289062 -3.382812 10.5625 -3.90625 C 8.84375 -4.4375 7.390625 -4.945312 6.203125 -5.4375 C 3.398438 -6.632812 1.109375 -7.75 -0.671875 -8.78125 C -2.460938 -9.8125 -3.863281 -11.046875 -4.875 -12.484375 C -5.882812 -13.929688 -6.628906 -15.847656 -7.109375 -18.234375 C -8.117188 -23.203125 -8.390625 -27.882812 -7.921875 -32.28125 C -7.453125 -36.675781 -6.332031 -40.929688 -4.5625 -45.046875 C -2.800781 -49.171875 -0.421875 -53.296875 2.578125 -57.421875 C 3.617188 -58.890625 4.867188 -60.476562 6.328125 -62.1875 C 7.796875 -63.90625 9.367188 -65.5625 11.046875 -67.15625 C 12.734375 -68.757812 14.492188 -70.148438 16.328125 -71.328125 C 18.160156 -72.515625 19.988281 -73.289062 21.8125 -73.65625 C 24.664062 -74.238281 27.253906 -74.050781 29.578125 -73.09375 C 31.910156 -72.144531 33.851562 -70.65625 35.40625 -68.625 C 36.96875 -66.59375 38.007812 -64.28125 38.53125 -61.6875 C 39.050781 -59.125 39.046875 -56.863281 38.515625 -54.90625 C 37.984375 -52.957031 37.140625 -51.085938 35.984375 -49.296875 C 34.835938 -47.515625 33.597656 -45.59375 32.265625 -43.53125 C 31.640625 -43.488281 31.144531 -43.644531 30.78125 -44 C 30.414062 -44.363281 30.039062 -44.726562 29.65625 -45.09375 L 21.21875 -53.0625 C 19.675781 -51.800781 18.25 -50.226562 16.9375 -48.34375 C 15.625 -46.46875 14.507812 -44.429688 13.59375 -42.234375 C 12.675781 -40.046875 12.054688 -37.847656 11.734375 -35.640625 C 11.421875 -33.441406 11.457031 -31.390625 11.84375 -29.484375 C 12.238281 -27.484375 12.90625 -25.429688 13.84375 -23.328125 C 14.789062 -21.222656 16.035156 -19.609375 17.578125 -18.484375 C 19.773438 -19.640625 22.023438 -20.929688 24.328125 -22.359375 C 26.628906 -23.796875 29.144531 -25.613281 31.875 -27.8125 C 34.613281 -30.007812 37.707031 -32.769531 41.15625 -36.09375 C 44.613281 -39.425781 48.585938 -43.566406 53.078125 -48.515625 C 53.816406 -48.941406 54.640625 -49.25 55.546875 -49.4375 C 57.191406 -49.757812 58.46875 -49.617188 59.375 -49.015625 C 60.28125 -48.410156 60.898438 -47.265625 61.234375 -45.578125 C 61.429688 -44.628906 61.4375 -43.617188 61.25 -42.546875 C 61.0625 -41.472656 60.660156 -40.414062 60.046875 -39.375 C 58.835938 -37.382812 57.429688 -35.394531 55.828125 -33.40625 C 54.222656 -31.414062 52.570312 -29.523438 50.875 -27.734375 C 49.1875 -25.953125 47.609375 -24.347656 46.140625 -22.921875 C 44.671875 -21.503906 43.476562 -20.363281 42.5625 -19.5 C 41.800781 -18.78125 40.800781 -17.796875 39.5625 -16.546875 C 38.332031 -15.296875 36.960938 -13.945312 35.453125 -12.5 C 33.941406 -11.050781 32.332031 -9.632812 30.625 -8.25 C 28.925781 -6.875 27.210938 -5.6875 25.484375 -4.6875 C 23.753906 -3.6875 22.0625 -3.019531 20.40625 -2.6875 Z M 20.40625 -2.6875 "/></g></g></g><g fill="#3a2b20" fill-opacity="1"><g transform="translate(980.115704, 1138.114548)"><g><path d="M 46.171875 -4.28125 C 44.953125 -4.039062 43.46875 -3.90625 41.71875 -3.875 C 39.976562 -3.84375 38.210938 -4.003906 36.421875 -4.359375 C 34.628906 -4.710938 33.082031 -5.332031 31.78125 -6.21875 C 30.476562 -7.113281 29.664062 -8.359375 29.34375 -9.953125 C 29.164062 -10.816406 29.117188 -11.707031 29.203125 -12.625 C 29.296875 -13.550781 29.414062 -14.453125 29.5625 -15.328125 C 27.007812 -12.742188 24.21875 -10.742188 21.1875 -9.328125 C 18.164062 -7.910156 15.269531 -6.925781 12.5 -6.375 C 9.507812 -5.769531 6.894531 -5.601562 4.65625 -5.875 C 2.425781 -6.144531 0.988281 -6.640625 0.34375 -7.359375 C -1.882812 -10.203125 -3.664062 -12.972656 -5 -15.671875 C -6.34375 -18.378906 -7.273438 -21.035156 -7.796875 -23.640625 C -8.566406 -27.484375 -8.546875 -31.1875 -7.734375 -34.75 C -6.921875 -38.320312 -5.535156 -41.707031 -3.578125 -44.90625 C -0.835938 -49.28125 2.066406 -52.820312 5.140625 -55.53125 C 8.210938 -58.25 11.59375 -59.984375 15.28125 -60.734375 C 18.351562 -61.347656 21.679688 -61.210938 25.265625 -60.328125 C 28.847656 -59.453125 32.695312 -57.738281 36.8125 -55.1875 C 37.207031 -55.894531 37.765625 -56.519531 38.484375 -57.0625 C 39.210938 -57.613281 40.007812 -57.976562 40.875 -58.15625 C 41.613281 -58.300781 42.414062 -58.285156 43.28125 -58.109375 C 44.15625 -57.929688 45.023438 -57.472656 45.890625 -56.734375 C 47.703125 -55.304688 49.070312 -54.128906 50 -53.203125 C 50.9375 -52.285156 51.507812 -51.332031 51.71875 -50.34375 C 51.894531 -49.425781 51.796875 -48.320312 51.421875 -47.03125 C 51.046875 -45.75 50.421875 -44.03125 49.546875 -41.875 C 47.890625 -37.84375 46.613281 -34.054688 45.71875 -30.515625 C 44.832031 -26.984375 44.378906 -23.367188 44.359375 -19.671875 C 44.335938 -19.484375 44.332031 -19.320312 44.34375 -19.1875 C 44.351562 -19.0625 44.375 -18.929688 44.40625 -18.796875 C 44.582031 -17.890625 45.125 -17.53125 46.03125 -17.71875 C 46.9375 -17.894531 48.160156 -18.617188 49.703125 -19.890625 C 51.253906 -21.171875 52.984375 -22.835938 54.890625 -24.890625 C 56.804688 -26.953125 58.804688 -29.226562 60.890625 -31.71875 C 62.984375 -34.207031 65.035156 -36.769531 67.046875 -39.40625 C 69.066406 -42.039062 70.957031 -44.609375 72.71875 -47.109375 C 74.488281 -49.609375 75.992188 -51.835938 77.234375 -53.796875 C 78.890625 -52.679688 80.128906 -51.476562 80.953125 -50.1875 C 81.785156 -48.894531 82.328125 -47.617188 82.578125 -46.359375 C 82.796875 -45.273438 82.847656 -44.222656 82.734375 -43.203125 C 82.628906 -42.191406 82.421875 -41.34375 82.109375 -40.65625 C 79.722656 -34.8125 76.59375 -29.367188 72.71875 -24.328125 C 68.84375 -19.296875 64.460938 -14.796875 59.578125 -10.828125 C 57.535156 -9.160156 55.363281 -7.769531 53.0625 -6.65625 C 50.769531 -5.539062 48.472656 -4.75 46.171875 -4.28125 Z M 25.25 -50.484375 C 24.6875 -50.378906 24.15625 -50.207031 23.65625 -49.96875 C 22.707031 -49.550781 21.625 -48.5625 20.40625 -47 C 19.1875 -45.445312 17.984375 -43.585938 16.796875 -41.421875 C 15.617188 -39.253906 14.554688 -36.984375 13.609375 -34.609375 C 12.671875 -32.234375 11.972656 -29.984375 11.515625 -27.859375 C 11.054688 -25.742188 10.96875 -23.992188 11.25 -22.609375 C 11.519531 -21.265625 12.078125 -20.460938 12.921875 -20.203125 C 13.773438 -19.941406 14.738281 -19.921875 15.8125 -20.140625 C 18.375 -20.648438 20.660156 -21.832031 22.671875 -23.6875 C 24.679688 -25.539062 26.4375 -27.773438 27.9375 -30.390625 C 29.4375 -33.003906 30.710938 -35.78125 31.765625 -38.71875 C 32.816406 -41.65625 33.6875 -44.457031 34.375 -47.125 C 34.40625 -47.21875 34.398438 -47.351562 34.359375 -47.53125 C 34.234375 -48.144531 33.6875 -48.722656 32.71875 -49.265625 C 31.757812 -49.816406 30.597656 -50.222656 29.234375 -50.484375 C 27.878906 -50.742188 26.550781 -50.742188 25.25 -50.484375 Z M 25.25 -50.484375 "/></g></g></g><g fill="#3a2b20" fill-opacity="1"><g transform="translate(1064.218189, 1121.18914)"><g><path d="M 1.046875 -2.84375 C 1.160156 -3.625 1.375 -4.804688 1.6875 -6.390625 C 2 -7.972656 2.335938 -9.742188 2.703125 -11.703125 C 3.078125 -13.671875 3.410156 -15.660156 3.703125 -17.671875 C 4.003906 -19.691406 4.207031 -21.546875 4.3125 -23.234375 C 4.414062 -24.921875 4.375 -26.242188 4.1875 -27.203125 C 3.820312 -29.023438 3.394531 -30.175781 2.90625 -30.65625 C 2.425781 -31.144531 2.128906 -31.378906 2.015625 -31.359375 C 1.835938 -31.328125 1.5 -31.066406 1 -30.578125 C 0.507812 -30.097656 0.00390625 -29.53125 -0.515625 -28.875 C -1.035156 -28.226562 -1.492188 -27.65625 -1.890625 -27.15625 C -2.285156 -26.65625 -2.507812 -26.351562 -2.5625 -26.25 L -8.828125 -32.5 C -8.335938 -33.800781 -7.691406 -35.320312 -6.890625 -37.0625 C -6.085938 -38.800781 -5.144531 -40.519531 -4.0625 -42.21875 C -2.988281 -43.925781 -1.785156 -45.398438 -0.453125 -46.640625 C 0.867188 -47.878906 2.265625 -48.644531 3.734375 -48.9375 C 5.085938 -49.207031 6.394531 -48.984375 7.65625 -48.265625 C 8.925781 -47.554688 10.050781 -46.613281 11.03125 -45.4375 C 12.019531 -44.257812 12.71875 -43.082031 13.125 -41.90625 C 13.695312 -43.5 14.535156 -45.195312 15.640625 -47 C 16.742188 -48.800781 17.988281 -50.515625 19.375 -52.140625 C 20.757812 -53.773438 22.128906 -55.132812 23.484375 -56.21875 C 24.847656 -57.300781 26.070312 -57.953125 27.15625 -58.171875 C 29.101562 -58.566406 31.039062 -58.40625 32.96875 -57.6875 C 34.894531 -56.96875 36.671875 -55.90625 38.296875 -54.5 C 39.929688 -53.09375 41.320312 -51.515625 42.46875 -49.765625 C 43.613281 -48.015625 44.347656 -46.316406 44.671875 -44.671875 C 45.097656 -42.546875 45.269531 -40.347656 45.1875 -38.078125 C 45.101562 -35.804688 45.023438 -33.492188 44.953125 -31.140625 C 44.890625 -28.785156 45.101562 -26.398438 45.59375 -23.984375 C 45.863281 -22.628906 46.238281 -21.695312 46.71875 -21.1875 C 47.195312 -20.6875 47.71875 -20.492188 48.28125 -20.609375 C 49.15625 -20.785156 50.210938 -21.488281 51.453125 -22.71875 C 52.691406 -23.957031 54.035156 -25.546875 55.484375 -27.484375 C 56.941406 -29.429688 58.4375 -31.566406 59.96875 -33.890625 C 61.507812 -36.222656 63.019531 -38.585938 64.5 -40.984375 C 65.976562 -43.390625 67.34375 -45.664062 68.59375 -47.8125 C 69.851562 -49.957031 70.921875 -51.765625 71.796875 -53.234375 L 78.53125 -46.6875 C 77.78125 -45.007812 76.867188 -42.910156 75.796875 -40.390625 C 74.734375 -37.878906 73.476562 -35.171875 72.03125 -32.265625 C 70.59375 -29.359375 68.9375 -26.453125 67.0625 -23.546875 C 65.1875 -20.648438 63.082031 -17.929688 60.75 -15.390625 C 58.425781 -12.859375 55.867188 -10.679688 53.078125 -8.859375 C 50.296875 -7.046875 47.242188 -5.800781 43.921875 -5.125 C 41.660156 -4.675781 39.726562 -4.953125 38.125 -5.953125 C 36.53125 -6.960938 35.1875 -8.4375 34.09375 -10.375 C 33.007812 -12.320312 32.109375 -14.492188 31.390625 -16.890625 C 30.679688 -19.296875 30.09375 -21.671875 29.625 -24.015625 C 29.300781 -25.578125 29.023438 -27.050781 28.796875 -28.4375 C 28.566406 -29.820312 28.34375 -31.054688 28.125 -32.140625 C 27.894531 -33.265625 27.671875 -34.15625 27.453125 -34.8125 C 27.234375 -35.476562 26.96875 -35.78125 26.65625 -35.71875 C 25.59375 -35.175781 24.679688 -34.175781 23.921875 -32.71875 C 23.160156 -31.257812 22.488281 -29.515625 21.90625 -27.484375 C 21.320312 -25.453125 20.800781 -23.273438 20.34375 -20.953125 C 19.882812 -18.628906 19.421875 -16.335938 18.953125 -14.078125 C 18.484375 -11.828125 17.953125 -9.753906 17.359375 -7.859375 C 16.773438 -5.960938 16.097656 -4.394531 15.328125 -3.15625 C 14.566406 -1.914062 13.625 -1.179688 12.5 -0.953125 C 11.113281 -0.671875 9.632812 -0.578125 8.0625 -0.671875 C 6.5 -0.765625 5.078125 -1.007812 3.796875 -1.40625 C 2.523438 -1.800781 1.609375 -2.28125 1.046875 -2.84375 Z M 1.046875 -2.84375 "/></g></g></g><g fill="#3a2b20" fill-opacity="1"><g transform="translate(1142.544694, 1105.426134)"><g/></g></g></svg>